<?xml version="1.0" encoding="UTF-8" standalone="no"?>
<!DOCTYPE svg PUBLIC "-//W3C//DTD SVG 1.1//EN" "http://www.w3.org/Graphics/SVG/1.1/DTD/svg11.dtd">
<svg width="100%" height="100%" viewBox="0 0 10 10" version="1.1" xmlns="http://www.w3.org/2000/svg" xmlns:xlink="http://www.w3.org/1999/xlink" xml:space="preserve" xmlns:serif="http://www.serif.com/" style="fill-rule:evenodd;clip-rule:evenodd;stroke-linejoin:round;stroke-miterlimit:2;">
    <path d="M9.259,1.615l-0.588,-1.106c-0.166,-0.313 -0.493,-0.509 -0.847,-0.509l-6.048,0c-0.354,0 -0.681,0.196 -0.847,0.509l-0.576,1.08c-0.074,0.139 -0.113,0.294 -0.113,0.451l0,6.6c0,0.527 0.433,0.96 0.96,0.96l7.2,0c0.527,0 0.96,-0.433 0.96,-0.96l0,-6.6c-0.012,-0.146 -0.046,-0.289 -0.101,-0.425Zm-7.819,-0.655c0,-0.263 0.217,-0.48 0.48,-0.48l5.76,0c0.263,-0 0.48,0.217 0.48,0.48l0,5.76c0,0.263 -0.217,0.48 -0.48,0.48l-5.76,0c-0.263,0 -0.48,-0.217 -0.48,-0.48l0,-5.76Zm0.24,8.16l-0.48,-0c-0.263,0 -0.48,-0.217 -0.48,-0.48l0,-6.6c0,-0.079 0.02,-0.156 0.058,-0.226l0.422,-0.794l0,5.7c0,0.395 0.325,0.72 0.72,0.72l-0.202,0l-0.122,0.122l-0.37,0.374l-0.221,0.516c-0.039,0.094 -0.048,0.198 -0.024,0.298l0.881,-0.878l0.432,-0.432l0.24,0l-0.533,0.535l-0.943,0.943c0.088,0.124 0.23,0.199 0.382,0.202l1.68,-1.68l0.24,0l-1.68,1.68Zm1.111,-0.312l-0.305,0.312l-0.24,0l0.444,-0.444l1.231,-1.236l0.24,0l-1.354,1.358l-0.017,0.01Zm0.266,0.312l1.68,-1.68l0.24,0l-1.68,1.68l-0.24,0Zm0.814,0l1.68,-1.68l0.24,0l-1.68,1.68l-0.24,0Zm0.814,0l1.666,-1.666l0.24,0l-0.13,0.13l-1.531,1.536l-0.245,0Zm0.814,0l1.248,-1.248l0.434,-0.432l0.24,0l-0.533,0.535l-1.142,1.145l-0.247,0Zm3.382,-0.48c0,0.263 -0.217,0.48 -0.48,0.48l-0.456,0l0.636,-0.636l0,-0.017l-0.166,-0.384l-0.72,0.72l-0.319,0.317l-0.24,0l1.217,-1.217l-0.07,-0.163c-0.033,-0.074 -0.084,-0.138 -0.149,-0.187l-0.845,0.847l-0.72,0.72l-0.24,0l1.654,-1.654c-0.043,-0.013 -0.087,-0.019 -0.132,-0.019l-0.17,0c0.395,0 0.72,-0.325 0.72,-0.72l0,-5.707l0.415,0.78c0.031,0.077 0.052,0.158 0.065,0.24l0,6.6Z" style="fill-rule:nonzero;"/>
    <path d="M8.64,8.678l-0.446,0.442c0.237,-0.016 0.428,-0.205 0.446,-0.442Z" style="fill-rule:nonzero;"/>
</svg>
