<?xml version="1.0" encoding="UTF-8" standalone="no"?>
<!DOCTYPE svg PUBLIC "-//W3C//DTD SVG 1.1//EN" "http://www.w3.org/Graphics/SVG/1.1/DTD/svg11.dtd">
<svg width="100%" height="100%" viewBox="0 0 40 40" version="1.1" xmlns="http://www.w3.org/2000/svg" xmlns:xlink="http://www.w3.org/1999/xlink" xml:space="preserve" style="fill-rule:evenodd;clip-rule:evenodd;stroke-linejoin:round;stroke-miterlimit:2;">
    <g transform="matrix(0.375104,0,0,0.375096,1.246355,1.242344)">
        <path d="M69.316,30.684C64.394,25.762 56.382,25.762 51.457,30.684C46.535,35.606 46.535,43.618 51.457,48.543C53.918,51.004 57.152,52.234 60.387,52.234C63.621,52.234 66.856,51.004 69.316,48.543C74.238,43.621 74.238,35.609 69.316,30.684L69.316,30.684ZM68.101,45.118L62.597,39.614L68.101,34.11C70.445,37.399 70.445,41.829 68.101,45.118L68.101,45.118ZM60.386,30.118C62.324,30.118 64.246,30.731 65.886,31.903L60.383,37.407L54.879,31.903C56.523,30.731 58.445,30.118 60.383,30.118L60.386,30.118ZM52.676,34.11L58.179,39.614L52.676,45.118C50.332,41.829 50.332,37.399 52.676,34.11L52.676,34.11ZM54.883,47.325L60.386,41.821L65.89,47.325C62.605,49.669 58.172,49.673 54.886,47.325L54.883,47.325ZM87.438,25.196C88.047,25.806 88.047,26.794 87.438,27.407C87.133,27.712 86.734,27.864 86.332,27.864C85.934,27.864 85.531,27.712 85.226,27.407L72.593,14.774C71.984,14.165 71.984,13.176 72.593,12.563C73.203,11.954 74.191,11.954 74.804,12.563L87.438,25.196ZM89.906,62.805C89.852,62.782 84.488,60.559 82.731,55.645C82.504,55.016 81.957,54.618 81.231,54.61C80.559,54.622 79.973,55.059 79.77,55.7C79.754,55.746 78.246,60.313 72.539,62.848C71.957,63.106 71.594,63.696 71.614,64.332C71.637,64.969 72.043,65.532 72.645,65.746C72.696,65.766 77.668,67.633 79.809,72.946C80.047,73.536 80.621,73.922 81.258,73.922L81.262,73.922C81.895,73.922 82.469,73.536 82.707,72.946C82.731,72.891 84.942,67.571 89.871,65.719C90.473,65.493 90.875,64.922 90.883,64.278C90.891,63.633 90.5,63.051 89.906,62.809L89.906,62.805ZM81.293,69.051C79.813,66.778 77.973,65.235 76.473,64.251C78.754,62.754 80.27,61.012 81.239,59.571C82.653,61.7 84.496,63.219 86.008,64.215C83.84,65.657 82.301,67.528 81.297,69.051L81.293,69.051ZM92.504,19.668L80.332,7.496C78.438,5.602 75.805,4.574 73.137,4.695C70.457,4.813 67.934,6.055 66.207,8.113L55.41,21.082C52.258,21.926 49.277,23.559 46.809,26.028C43.453,29.383 41.613,33.68 41.266,38.075L23.317,59.634C21.84,58.157 20.457,56.29 19.637,53.993C19.41,53.364 18.828,52.962 18.145,52.962C17.477,52.97 16.887,53.407 16.68,54.04C16.594,54.306 14.473,60.544 6.61,64.036C6.028,64.294 5.665,64.884 5.684,65.521C5.708,66.157 6.114,66.72 6.715,66.935C6.762,66.95 10.239,68.259 13.329,71.63L6.512,79.817C3.899,82.931 4.094,87.442 6.965,90.317L9.684,93.036C11.208,94.56 13.188,95.329 15.18,95.329C16.946,95.329 18.719,94.72 20.18,93.493L61.926,58.739C66.321,58.388 70.618,56.552 73.973,53.196C76.442,50.728 78.079,47.747 78.919,44.595L91.896,33.79C93.946,32.067 95.189,29.54 95.306,26.864C95.423,24.188 94.399,21.563 92.505,19.669L92.504,19.668ZM10.672,65.434C14.508,63.114 16.821,60.243 18.137,58.098C20.262,61.645 23.344,64.012 25.59,65.391C21.981,67.563 19.586,70.684 18.2,72.946C15.942,69.141 12.895,66.774 10.672,65.434L10.672,65.434ZM18.172,91.098C16.309,92.661 13.61,92.547 11.891,90.825L9.172,88.106C7.453,86.387 7.336,83.688 8.907,81.821L15.274,74.172C15.809,75.02 16.301,75.942 16.711,76.965C16.95,77.555 17.524,77.942 18.16,77.942C18.797,77.942 19.371,77.555 19.61,76.965C19.641,76.891 22.707,69.485 29.602,66.899C30.203,66.673 30.606,66.099 30.614,65.454C30.621,64.81 30.231,64.228 29.637,63.985C29.602,63.97 27.801,63.22 25.68,61.665L41.453,42.72C42.078,46.556 43.848,50.24 46.801,53.193C49.754,56.147 53.437,57.916 57.274,58.541L18.169,91.096L18.172,91.098ZM71.762,50.985C68.7,54.048 64.7,55.602 60.68,55.673C60.676,55.649 60.672,55.649 60.653,55.673C56.45,55.739 52.223,54.184 49.016,50.981C42.746,44.708 42.746,34.504 49.016,28.235C52.153,25.099 56.27,23.532 60.391,23.532C64.508,23.532 68.625,25.103 71.762,28.235C78.031,34.509 78.031,44.712 71.762,50.981L71.762,50.985ZM89.887,31.391L79.567,39.981C79.665,34.938 77.806,29.868 73.97,26.028C70.13,22.188 65.059,20.333 60.017,20.43L68.602,10.118C69.782,8.716 71.438,7.9 73.27,7.818C75.095,7.759 76.825,8.411 78.122,9.704L90.294,21.876C91.591,23.173 92.263,24.896 92.181,26.728C92.103,28.56 91.286,30.216 89.888,31.392L89.887,31.391Z" style="fill-rule:nonzero;"/>
    </g>
</svg>
